<svg width="699" height="140" viewBox="0 0 699 140" fill="none" xmlns="http://www.w3.org/2000/svg">
<path d="M122.684 4.688C123.665 4.73067 124.924 4.77333 126.46 4.816C128.038 4.85866 129.596 4.88 131.132 4.88C133.18 4.88 135.121 4.85866 136.956 4.816C138.833 4.77333 140.156 4.752 140.924 4.752C146.342 4.752 150.396 5.92533 153.083 8.272C155.772 10.6187 157.116 13.648 157.116 17.36C157.116 18.896 156.838 20.5173 156.284 22.224C155.772 23.888 154.854 25.4453 153.532 26.896C152.209 28.304 150.417 29.456 148.156 30.352C145.894 31.248 143.014 31.696 139.516 31.696H133.244V30.416H138.876C141.734 30.416 143.91 29.84 145.404 28.688C146.94 27.536 147.964 26.0213 148.476 24.144C149.03 22.2667 149.308 20.24 149.308 18.064C149.308 14.0107 148.582 10.9813 147.132 8.976C145.681 6.97066 143.164 5.968 139.58 5.968C137.745 5.968 136.529 6.33067 135.932 7.056C135.377 7.78133 135.1 9.25333 135.1 11.472V43.088C135.1 44.6667 135.27 45.8613 135.612 46.672C135.953 47.44 136.593 47.952 137.532 48.208C138.47 48.464 139.857 48.6133 141.692 48.656V50C140.54 49.9147 139.046 49.872 137.212 49.872C135.377 49.8293 133.478 49.808 131.516 49.808C129.809 49.808 128.166 49.8293 126.588 49.872C125.052 49.872 123.75 49.9147 122.684 50V48.72C124.134 48.6347 125.222 48.464 125.948 48.208C126.673 47.952 127.142 47.44 127.356 46.672C127.612 45.904 127.74 44.752 127.74 43.216V11.472C127.74 9.89333 127.612 8.74133 127.356 8.016C127.142 7.248 126.652 6.736 125.884 6.48C125.158 6.18133 124.092 6.01066 122.684 5.968V4.688ZM175.6 16.08C179.355 16.08 182.299 17.2107 184.432 19.472C186.565 21.7333 187.632 25.3173 187.632 30.224H165.552L165.424 29.008H180.848C180.891 26.9173 180.72 24.9973 180.336 23.248C179.952 21.456 179.355 20.0267 178.544 18.96C177.733 17.8933 176.667 17.36 175.344 17.36C173.509 17.36 171.909 18.3413 170.544 20.304C169.221 22.224 168.411 25.3173 168.112 29.584L168.304 29.904C168.261 30.5013 168.219 31.1627 168.176 31.888C168.133 32.5707 168.112 33.2533 168.112 33.936C168.112 36.88 168.56 39.3547 169.456 41.36C170.352 43.3653 171.525 44.88 172.976 45.904C174.427 46.8853 175.899 47.376 177.392 47.376C178.544 47.376 179.653 47.2053 180.72 46.864C181.829 46.48 182.875 45.8613 183.856 45.008C184.837 44.112 185.712 42.896 186.48 41.36L187.76 41.872C187.248 43.3227 186.459 44.752 185.392 46.16C184.325 47.568 182.96 48.72 181.296 49.616C179.632 50.4693 177.691 50.896 175.472 50.896C172.485 50.896 169.883 50.2347 167.664 48.912C165.445 47.5467 163.739 45.6053 162.544 43.088C161.349 40.5707 160.752 37.584 160.752 34.128C160.752 30.3307 161.371 27.088 162.608 24.4C163.845 21.712 165.573 19.664 167.792 18.256C170.053 16.8053 172.656 16.08 175.6 16.08ZM213.74 16.08C215.361 16.08 216.726 16.3147 217.836 16.784C218.945 17.2107 219.841 17.808 220.524 18.576C221.292 19.3867 221.825 20.4747 222.124 21.84C222.422 23.1627 222.572 24.848 222.572 26.896V44.048C222.572 45.84 222.913 47.056 223.596 47.696C224.278 48.336 225.43 48.656 227.052 48.656V50C226.326 49.9573 225.196 49.9147 223.66 49.872C222.166 49.7867 220.694 49.744 219.244 49.744C217.793 49.744 216.364 49.7867 214.956 49.872C213.59 49.9147 212.545 49.9573 211.82 50V48.656C213.228 48.656 214.209 48.336 214.764 47.696C215.361 47.056 215.66 45.84 215.66 44.048V25.104C215.66 23.8667 215.574 22.7573 215.404 21.776C215.233 20.752 214.828 19.9413 214.188 19.344C213.59 18.704 212.63 18.384 211.308 18.384C209.814 18.384 208.47 18.832 207.276 19.728C206.124 20.624 205.185 21.8613 204.46 23.44C203.777 24.976 203.436 26.704 203.436 28.624V44.048C203.436 45.84 203.734 47.056 204.332 47.696C204.929 48.336 205.91 48.656 207.276 48.656V50C206.593 49.9573 205.569 49.9147 204.204 49.872C202.838 49.7867 201.43 49.744 199.98 49.744C198.529 49.744 197.014 49.7867 195.436 49.872C193.857 49.9147 192.684 49.9573 191.916 50V48.656C193.579 48.656 194.753 48.336 195.436 47.696C196.161 47.056 196.524 45.84 196.524 44.048V23.952C196.524 22.032 196.204 20.624 195.564 19.728C194.924 18.7893 193.708 18.32 191.916 18.32V16.976C193.281 17.104 194.604 17.168 195.884 17.168C197.334 17.168 198.678 17.104 199.916 16.976C201.196 16.8053 202.369 16.5707 203.436 16.272V23.248C204.545 20.688 206.017 18.8533 207.852 17.744C209.729 16.6347 211.692 16.08 213.74 16.08ZM233.004 16.08C234.625 16.08 235.99 16.3147 237.1 16.784C238.209 17.2107 239.105 17.808 239.788 18.576C240.556 19.3867 241.089 20.4747 241.388 21.84C241.686 23.1627 241.836 24.848 241.836 26.896V44.048C241.836 45.84 242.177 47.056 242.86 47.696C243.585 48.336 244.78 48.656 246.444 48.656V50C245.718 49.9573 244.588 49.9147 243.052 49.872C241.516 49.7867 240.001 49.744 238.508 49.744C237.057 49.744 235.628 49.7867 234.22 49.872C232.854 49.9147 231.809 49.9573 231.084 50V48.656C232.492 48.656 233.473 48.336 234.028 47.696C234.625 47.056 234.924 45.84 234.924 44.048V25.104C234.924 23.8667 234.838 22.7573 234.668 21.776C234.497 20.752 234.092 19.9413 233.452 19.344C232.812 18.704 231.809 18.384 230.444 18.384C228.95 18.384 227.606 18.8533 226.412 19.792C225.26 20.688 224.321 21.9253 223.596 23.504C222.913 25.04 222.572 26.768 222.572 28.688L222.316 23.376C223.468 20.56 225.004 18.64 226.924 17.616C228.886 16.592 230.913 16.08 233.004 16.08ZM258.127 50.448C256.335 50.448 254.799 50.1067 253.519 49.424C252.239 48.7413 251.279 47.8027 250.639 46.608C249.999 45.4133 249.679 44.048 249.679 42.512C249.679 40.6347 250.106 39.12 250.959 37.968C251.812 36.7733 252.9 35.8133 254.223 35.088C255.588 34.3627 257.018 33.7653 258.511 33.296C260.047 32.784 261.476 32.3147 262.799 31.888C264.164 31.4187 265.274 30.8853 266.127 30.288C267.023 29.6907 267.471 28.9013 267.471 27.92V23.568C267.471 22.032 267.215 20.816 266.703 19.92C266.234 18.9813 265.572 18.32 264.719 17.936C263.908 17.552 262.927 17.36 261.775 17.36C260.794 17.36 259.748 17.5093 258.639 17.808C257.53 18.064 256.655 18.5973 256.015 19.408C256.954 19.664 257.722 20.176 258.319 20.944C258.959 21.6693 259.279 22.5867 259.279 23.696C259.279 24.8907 258.874 25.8293 258.063 26.512C257.295 27.1947 256.314 27.536 255.119 27.536C253.796 27.536 252.815 27.1307 252.175 26.32C251.535 25.4667 251.215 24.4853 251.215 23.376C251.215 22.224 251.492 21.2853 252.047 20.56C252.644 19.8347 253.412 19.152 254.351 18.512C255.375 17.8293 256.676 17.2533 258.255 16.784C259.876 16.3147 261.668 16.08 263.631 16.08C265.466 16.08 267.044 16.2933 268.367 16.72C269.732 17.104 270.863 17.744 271.759 18.64C272.826 19.6213 273.53 20.8587 273.871 22.352C274.212 23.8027 274.383 25.5733 274.383 27.664V45.328C274.383 46.3947 274.511 47.1627 274.767 47.632C275.066 48.0587 275.535 48.272 276.175 48.272C276.602 48.272 277.007 48.1653 277.391 47.952C277.818 47.7387 278.308 47.4187 278.863 46.992L279.503 48.08C278.607 48.8053 277.69 49.3813 276.751 49.808C275.855 50.2347 274.703 50.448 273.295 50.448C271.93 50.448 270.82 50.2347 269.967 49.808C269.114 49.3813 268.474 48.7627 268.047 47.952C267.663 47.1413 267.471 46.1387 267.471 44.944C266.362 46.736 265.039 48.1013 263.503 49.04C261.967 49.9787 260.175 50.448 258.127 50.448ZM261.199 47.376C262.394 47.376 263.503 47.0347 264.527 46.352C265.594 45.6693 266.575 44.6453 267.471 43.28V30.544C267.002 31.2267 266.319 31.824 265.423 32.336C264.527 32.8053 263.567 33.296 262.543 33.808C261.519 34.32 260.538 34.9173 259.599 35.6C258.703 36.24 257.956 37.072 257.359 38.096C256.762 39.12 256.463 40.4213 256.463 42C256.463 43.664 256.89 44.9867 257.743 45.968C258.596 46.9067 259.748 47.376 261.199 47.376ZM303.688 16.08C305.394 16.08 306.781 16.3147 307.848 16.784C308.957 17.2107 309.874 17.808 310.6 18.576C311.368 19.3867 311.901 20.432 312.2 21.712C312.541 22.992 312.712 24.72 312.712 26.896V44.048C312.712 45.84 313.053 47.056 313.736 47.696C314.461 48.336 315.656 48.656 317.319 48.656V50C316.594 49.9573 315.464 49.9147 313.928 49.872C312.392 49.7867 310.877 49.744 309.384 49.744C307.933 49.744 306.482 49.7867 305.032 49.872C303.624 49.9147 302.557 49.9573 301.832 50V48.656C303.282 48.656 304.306 48.336 304.904 47.696C305.501 47.056 305.8 45.84 305.8 44.048V25.104C305.8 23.8667 305.693 22.7573 305.48 21.776C305.266 20.752 304.818 19.9413 304.136 19.344C303.453 18.704 302.429 18.384 301.064 18.384C299.485 18.384 298.077 18.832 296.84 19.728C295.645 20.624 294.685 21.8613 293.96 23.44C293.277 24.976 292.936 26.704 292.936 28.624V44.048C292.936 45.84 293.234 47.056 293.832 47.696C294.472 48.336 295.496 48.656 296.904 48.656V50C296.221 49.9573 295.176 49.9147 293.768 49.872C292.402 49.7867 290.973 49.744 289.48 49.744C288.029 49.744 286.514 49.7867 284.936 49.872C283.357 49.9147 282.184 49.9573 281.416 50V48.656C283.079 48.656 284.253 48.336 284.936 47.696C285.661 47.056 286.024 45.84 286.024 44.048V23.952C286.024 22.032 285.704 20.624 285.064 19.728C284.424 18.7893 283.208 18.32 281.416 18.32V16.976C282.781 17.104 284.104 17.168 285.384 17.168C286.834 17.168 288.178 17.104 289.416 16.976C290.696 16.8053 291.869 16.5707 292.936 16.272V23.248C294.045 20.6027 295.56 18.7467 297.48 17.68C299.442 16.6133 301.512 16.08 303.688 16.08ZM336.234 16.08C337.685 16.08 339.071 16.272 340.394 16.656C341.717 16.9973 342.869 17.488 343.85 18.128C344.874 18.768 345.642 19.536 346.154 20.432C346.709 21.328 346.986 22.3093 346.986 23.376C346.986 24.656 346.623 25.6587 345.898 26.384C345.173 27.1093 344.234 27.472 343.082 27.472C341.93 27.472 340.97 27.152 340.202 26.512C339.434 25.872 339.05 24.9547 339.05 23.76C339.05 22.6507 339.37 21.7547 340.01 21.072C340.65 20.3467 341.397 19.8773 342.25 19.664C341.866 19.024 341.183 18.4907 340.202 18.064C339.263 17.5947 338.239 17.36 337.13 17.36C335.978 17.36 334.869 17.6587 333.802 18.256C332.778 18.8533 331.861 19.7707 331.05 21.008C330.239 22.2453 329.578 23.8453 329.066 25.808C328.597 27.7707 328.362 30.1387 328.362 32.912C328.362 36.496 328.767 39.3547 329.578 41.488C330.431 43.5787 331.541 45.072 332.906 45.968C334.271 46.864 335.743 47.312 337.322 47.312C338.346 47.312 339.391 47.12 340.458 46.736C341.567 46.352 342.613 45.712 343.594 44.816C344.618 43.92 345.514 42.704 346.282 41.168L347.498 41.616C347.029 43.024 346.282 44.4533 345.258 45.904C344.277 47.3547 342.975 48.5493 341.354 49.488C339.733 50.4267 337.749 50.896 335.402 50.896C332.714 50.896 330.282 50.2347 328.106 48.912C325.93 47.5893 324.202 45.6693 322.922 43.152C321.642 40.592 321.002 37.4773 321.002 33.808C321.002 30.224 321.642 27.1093 322.922 24.464C324.245 21.776 326.058 19.7067 328.362 18.256C330.666 16.8053 333.29 16.08 336.234 16.08ZM358.97 0.848C360.293 0.848 361.403 1.27467 362.299 2.128C363.195 2.93866 363.643 3.96266 363.643 5.2C363.643 6.43733 363.195 7.48267 362.299 8.336C361.403 9.14666 360.293 9.552 358.97 9.552C357.648 9.552 356.539 9.14666 355.643 8.336C354.747 7.48267 354.299 6.43733 354.299 5.2C354.299 3.96266 354.747 2.93866 355.643 2.128C356.539 1.27467 357.648 0.848 358.97 0.848ZM362.811 16.272V44.048C362.811 45.84 363.152 47.056 363.835 47.696C364.56 48.336 365.755 48.656 367.419 48.656V50C366.693 49.9573 365.563 49.9147 364.027 49.872C362.533 49.7867 360.997 49.744 359.419 49.744C357.925 49.744 356.389 49.7867 354.811 49.872C353.232 49.9147 352.059 49.9573 351.291 50V48.656C352.954 48.656 354.128 48.336 354.811 47.696C355.536 47.056 355.899 45.84 355.899 44.048V23.952C355.899 22.032 355.579 20.624 354.939 19.728C354.299 18.7893 353.083 18.32 351.291 18.32V16.976C352.656 17.104 353.979 17.168 355.259 17.168C356.709 17.168 358.053 17.104 359.291 16.976C360.571 16.8053 361.744 16.5707 362.811 16.272ZM392.75 16.08C394.457 16.08 395.843 16.3147 396.91 16.784C398.019 17.2107 398.937 17.808 399.662 18.576C400.43 19.3867 400.963 20.432 401.262 21.712C401.603 22.992 401.774 24.72 401.774 26.896V44.048C401.774 45.84 402.115 47.056 402.798 47.696C403.523 48.336 404.718 48.656 406.382 48.656V50C405.657 49.9573 404.526 49.9147 402.99 49.872C401.454 49.7867 399.939 49.744 398.446 49.744C396.995 49.744 395.545 49.7867 394.094 49.872C392.686 49.9147 391.619 49.9573 390.894 50V48.656C392.345 48.656 393.369 48.336 393.966 47.696C394.563 47.056 394.862 45.84 394.862 44.048V25.104C394.862 23.8667 394.755 22.7573 394.542 21.776C394.329 20.752 393.881 19.9413 393.198 19.344C392.515 18.704 391.491 18.384 390.126 18.384C388.547 18.384 387.139 18.832 385.902 19.728C384.707 20.624 383.747 21.8613 383.022 23.44C382.339 24.976 381.998 26.704 381.998 28.624V44.048C381.998 45.84 382.297 47.056 382.894 47.696C383.534 48.336 384.558 48.656 385.966 48.656V50C385.283 49.9573 384.238 49.9147 382.83 49.872C381.465 49.7867 380.035 49.744 378.542 49.744C377.091 49.744 375.577 49.7867 373.998 49.872C372.419 49.9147 371.246 49.9573 370.478 50V48.656C372.142 48.656 373.315 48.336 373.998 47.696C374.723 47.056 375.086 45.84 375.086 44.048V23.952C375.086 22.032 374.766 20.624 374.126 19.728C373.486 18.7893 372.27 18.32 370.478 18.32V16.976C371.843 17.104 373.166 17.168 374.446 17.168C375.897 17.168 377.241 17.104 378.478 16.976C379.758 16.8053 380.931 16.5707 381.998 16.272V23.248C383.107 20.6027 384.622 18.7467 386.542 17.68C388.505 16.6133 390.574 16.08 392.75 16.08ZM420.51 62.032C418.121 62.032 415.902 61.7973 413.854 61.328C411.849 60.8587 410.227 60.1333 408.99 59.152C407.795 58.2133 407.198 56.9973 407.198 55.504C407.198 54.096 407.795 52.8587 408.99 51.792C410.185 50.7253 411.87 49.9147 414.046 49.36L414.494 50.384C413.598 50.768 412.894 51.3867 412.382 52.24C411.913 53.0933 411.678 54.032 411.678 55.056C411.678 56.9333 412.553 58.384 414.302 59.408C416.051 60.432 418.355 60.944 421.214 60.944C423.134 60.944 424.947 60.688 426.654 60.176C428.403 59.7067 429.811 58.9173 430.878 57.808C431.987 56.6987 432.542 55.2693 432.542 53.52C432.542 52.1547 432.051 51.0027 431.07 50.064C430.089 49.168 428.147 48.72 425.246 48.72H420.766C419.273 48.72 417.886 48.592 416.606 48.336C415.326 48.08 414.281 47.5893 413.47 46.864C412.702 46.096 412.318 45.0293 412.318 43.664C412.318 42.128 412.958 40.6773 414.238 39.312C415.518 37.9467 417.673 36.6027 420.702 35.28L421.47 35.856C420.233 36.5387 419.123 37.2427 418.142 37.968C417.203 38.6507 416.734 39.504 416.734 40.528C416.734 41.8933 417.715 42.576 419.678 42.576H427.294C429.299 42.576 431.113 42.8533 432.734 43.408C434.355 43.92 435.657 44.752 436.638 45.904C437.619 47.056 438.11 48.5707 438.11 50.448C438.11 52.4533 437.449 54.3307 436.126 56.08C434.846 57.872 432.905 59.3013 430.302 60.368C427.699 61.4773 424.435 62.032 420.51 62.032ZM420.894 36.368C418.718 36.368 416.734 36.0267 414.942 35.344C413.15 34.6187 411.742 33.5093 410.718 32.016C409.694 30.5227 409.182 28.6027 409.182 26.256C409.182 23.9093 409.694 21.9893 410.718 20.496C411.742 18.96 413.15 17.8507 414.942 17.168C416.734 16.4427 418.718 16.08 420.894 16.08C423.155 16.08 425.161 16.4427 426.91 17.168C428.659 17.8507 430.046 18.96 431.07 20.496C432.094 21.9893 432.606 23.9093 432.606 26.256C432.606 28.6027 432.094 30.5227 431.07 32.016C430.046 33.5093 428.659 34.6187 426.91 35.344C425.161 36.0267 423.155 36.368 420.894 36.368ZM420.894 35.216C422.387 35.216 423.539 34.576 424.35 33.296C425.161 32.016 425.566 29.6693 425.566 26.256C425.566 22.8427 425.161 20.496 424.35 19.216C423.539 17.8933 422.387 17.232 420.894 17.232C419.486 17.232 418.355 17.8933 417.502 19.216C416.649 20.496 416.222 22.8427 416.222 26.256C416.222 29.6693 416.649 32.016 417.502 33.296C418.355 34.576 419.486 35.216 420.894 35.216ZM430.366 21.456L429.214 21.008C429.811 19.5147 430.835 18.2133 432.286 17.104C433.737 15.9947 435.251 15.44 436.83 15.44C438.025 15.44 438.963 15.7813 439.646 16.464C440.371 17.104 440.734 18.0213 440.734 19.216C440.734 20.5387 440.371 21.4773 439.646 22.032C438.963 22.5867 438.238 22.864 437.47 22.864C436.787 22.864 436.147 22.6293 435.55 22.16C434.995 21.6907 434.675 20.9653 434.59 19.984C434.505 18.96 434.825 17.6587 435.55 16.08L436.254 16.336C434.547 17.0187 433.289 17.744 432.478 18.512C431.71 19.2373 431.006 20.2187 430.366 21.456ZM451.19 50.448C449.398 50.448 447.862 50.1067 446.582 49.424C445.302 48.7413 444.342 47.8027 443.702 46.608C443.062 45.4133 442.742 44.048 442.742 42.512C442.742 40.6347 443.168 39.12 444.022 37.968C444.875 36.7733 445.963 35.8133 447.286 35.088C448.651 34.3627 450.08 33.7653 451.574 33.296C453.11 32.784 454.539 32.3147 455.862 31.888C457.227 31.4187 458.336 30.8853 459.19 30.288C460.086 29.6907 460.534 28.9013 460.534 27.92V23.568C460.534 22.032 460.278 20.816 459.766 19.92C459.296 18.9813 458.635 18.32 457.782 17.936C456.971 17.552 455.99 17.36 454.838 17.36C453.856 17.36 452.811 17.5093 451.702 17.808C450.592 18.064 449.718 18.5973 449.078 19.408C450.016 19.664 450.784 20.176 451.382 20.944C452.022 21.6693 452.342 22.5867 452.342 23.696C452.342 24.8907 451.936 25.8293 451.126 26.512C450.358 27.1947 449.376 27.536 448.182 27.536C446.859 27.536 445.878 27.1307 445.238 26.32C444.598 25.4667 444.278 24.4853 444.278 23.376C444.278 22.224 444.555 21.2853 445.11 20.56C445.707 19.8347 446.475 19.152 447.414 18.512C448.438 17.8293 449.739 17.2533 451.318 16.784C452.939 16.3147 454.731 16.08 456.694 16.08C458.528 16.08 460.107 16.2933 461.43 16.72C462.795 17.104 463.926 17.744 464.822 18.64C465.888 19.6213 466.592 20.8587 466.934 22.352C467.275 23.8027 467.446 25.5733 467.446 27.664V45.328C467.446 46.3947 467.574 47.1627 467.83 47.632C468.128 48.0587 468.598 48.272 469.238 48.272C469.664 48.272 470.07 48.1653 470.454 47.952C470.88 47.7387 471.371 47.4187 471.926 46.992L472.566 48.08C471.67 48.8053 470.752 49.3813 469.814 49.808C468.918 50.2347 467.766 50.448 466.358 50.448C464.992 50.448 463.883 50.2347 463.03 49.808C462.176 49.3813 461.536 48.7627 461.11 47.952C460.726 47.1413 460.534 46.1387 460.534 44.944C459.424 46.736 458.102 48.1013 456.566 49.04C455.03 49.9787 453.238 50.448 451.19 50.448ZM454.262 47.376C455.456 47.376 456.566 47.0347 457.59 46.352C458.656 45.6693 459.638 44.6453 460.534 43.28V30.544C460.064 31.2267 459.382 31.824 458.486 32.336C457.59 32.8053 456.63 33.296 455.606 33.808C454.582 34.32 453.6 34.9173 452.662 35.6C451.766 36.24 451.019 37.072 450.422 38.096C449.824 39.12 449.526 40.4213 449.526 42C449.526 43.664 449.952 44.9867 450.806 45.968C451.659 46.9067 452.811 47.376 454.262 47.376ZM496.75 16.08C498.457 16.08 499.843 16.3147 500.91 16.784C502.019 17.2107 502.937 17.808 503.662 18.576C504.43 19.3867 504.963 20.432 505.262 21.712C505.603 22.992 505.774 24.72 505.774 26.896V44.048C505.774 45.84 506.115 47.056 506.798 47.696C507.523 48.336 508.718 48.656 510.382 48.656V50C509.657 49.9573 508.526 49.9147 506.99 49.872C505.454 49.7867 503.939 49.744 502.446 49.744C500.995 49.744 499.545 49.7867 498.094 49.872C496.686 49.9147 495.619 49.9573 494.894 50V48.656C496.345 48.656 497.369 48.336 497.966 47.696C498.563 47.056 498.862 45.84 498.862 44.048V25.104C498.862 23.8667 498.755 22.7573 498.542 21.776C498.329 20.752 497.881 19.9413 497.198 19.344C496.515 18.704 495.491 18.384 494.126 18.384C492.547 18.384 491.139 18.832 489.902 19.728C488.707 20.624 487.747 21.8613 487.022 23.44C486.339 24.976 485.998 26.704 485.998 28.624V44.048C485.998 45.84 486.297 47.056 486.894 47.696C487.534 48.336 488.558 48.656 489.966 48.656V50C489.283 49.9573 488.238 49.9147 486.83 49.872C485.465 49.7867 484.035 49.744 482.542 49.744C481.091 49.744 479.577 49.7867 477.998 49.872C476.419 49.9147 475.246 49.9573 474.478 50V48.656C476.142 48.656 477.315 48.336 477.998 47.696C478.723 47.056 479.086 45.84 479.086 44.048V23.952C479.086 22.032 478.766 20.624 478.126 19.728C477.486 18.7893 476.27 18.32 474.478 18.32V16.976C475.843 17.104 477.166 17.168 478.446 17.168C479.897 17.168 481.241 17.104 482.478 16.976C483.758 16.8053 484.931 16.5707 485.998 16.272V23.248C487.107 20.6027 488.622 18.7467 490.542 17.68C492.505 16.6133 494.574 16.08 496.75 16.08ZM547.098 4.88C548.719 4.88 550.042 5.05066 551.066 5.392C552.132 5.69066 553.028 6.096 553.754 6.608C554.351 6.992 554.842 7.44 555.226 7.952C555.652 8.464 555.994 8.99733 556.25 9.552C556.506 10.1067 556.634 10.6827 556.634 11.28C556.634 12.432 556.207 13.3493 555.354 14.032C554.543 14.672 553.626 14.992 552.602 14.992C551.578 14.992 550.682 14.6933 549.914 14.096C549.188 13.4987 548.826 12.6453 548.826 11.536C548.826 10.5547 549.167 9.70133 549.85 8.976C550.532 8.208 551.386 7.76 552.41 7.632C552.196 7.16266 551.663 6.75733 550.81 6.416C549.999 6.07467 548.996 5.904 547.802 5.904C545.583 5.904 543.748 6.56533 542.298 7.888C540.89 9.21066 540.186 11.1733 540.186 13.776C540.186 14.8853 540.378 16.0373 540.762 17.232C541.188 18.4267 541.999 19.6213 543.194 20.816C543.919 20.688 544.623 20.5813 545.306 20.496C546.031 20.4107 546.607 20.368 547.034 20.368C547.802 20.368 548.399 20.5173 548.826 20.816C549.295 21.072 549.53 21.456 549.53 21.968C549.53 22.352 549.359 22.6507 549.018 22.864C548.676 23.0773 548.25 23.184 547.738 23.184C546.927 23.184 546.095 23.0133 545.242 22.672C544.388 22.288 543.727 21.968 543.258 21.712C540.911 22.5227 539.012 23.76 537.562 25.424C536.154 27.0453 535.45 29.2853 535.45 32.144C535.45 35.0453 536.218 37.4987 537.754 39.504C539.29 41.4667 541.38 42.96 544.026 43.984C546.671 45.008 549.7 45.52 553.114 45.52C555.332 45.52 557.466 45.264 559.514 44.752C561.562 44.24 563.375 43.4933 564.954 42.512C566.575 41.488 567.855 40.272 568.794 38.864C569.732 37.456 570.202 35.8347 570.202 34C570.202 33.232 570.052 32.2507 569.754 31.056C569.455 29.8613 568.815 28.688 567.834 27.536C566.895 26.384 565.423 25.4667 563.418 24.784L564.058 24.144C566.916 25.04 568.986 26.512 570.266 28.56C571.546 30.608 572.186 32.912 572.186 35.472C572.186 38.16 571.354 40.6987 569.69 43.088C568.068 45.4347 565.743 47.3333 562.714 48.784C559.684 50.192 556.036 50.896 551.77 50.896C548.74 50.896 545.903 50.5333 543.258 49.808C540.655 49.0827 538.372 48.0373 536.41 46.672C534.447 45.264 532.911 43.5787 531.802 41.616C530.692 39.6533 530.138 37.4347 530.138 34.96C530.138 32.6133 530.586 30.6293 531.482 29.008C532.42 27.344 533.572 25.9787 534.938 24.912C536.303 23.8027 537.668 22.9707 539.034 22.416C540.399 21.8187 541.508 21.4133 542.362 21.2C540.954 20.6027 539.738 19.8987 538.714 19.088C537.732 18.2347 536.964 17.296 536.41 16.272C535.898 15.2053 535.642 14.1173 535.642 13.008C535.642 11.856 535.919 10.7893 536.474 9.808C537.028 8.82667 537.796 7.97333 538.778 7.248C539.802 6.48 540.996 5.904 542.362 5.52C543.77 5.09333 545.348 4.88 547.098 4.88ZM570.97 3.792C573.743 3.792 576.047 4.56 577.882 6.096C579.716 7.632 580.634 9.78666 580.634 12.56C580.634 14.2667 580.271 15.7387 579.546 16.976C578.863 18.2133 577.882 19.28 576.602 20.176C575.364 21.072 573.914 21.7973 572.25 22.352C571.396 22.736 570.287 23.1627 568.922 23.632C567.556 24.0587 566.106 24.5067 564.569 24.976C563.034 25.4453 561.562 25.8933 560.154 26.32C558.788 26.7467 557.658 27.1307 556.762 27.472C554.628 28.112 552.9 28.88 551.578 29.776C550.255 30.6293 549.594 31.7813 549.594 33.232C549.594 34.3413 549.914 35.28 550.554 36.048C551.236 36.816 552.047 37.392 552.986 37.776C553.967 38.16 554.906 38.352 555.802 38.352C556.143 38.352 556.57 38.3093 557.082 38.224C557.594 38.1387 558.042 38.0107 558.426 37.84C558.852 37.6693 559.108 37.456 559.194 37.2C558.383 37.0293 557.658 36.6667 557.018 36.112C556.42 35.5147 556.122 34.6827 556.122 33.616C556.122 32.5067 556.506 31.632 557.274 30.992C558.084 30.352 559.066 30.032 560.218 30.032C561.412 30.032 562.351 30.3733 563.034 31.056C563.759 31.7387 564.122 32.6347 564.122 33.744C564.122 34.9813 563.716 36.0267 562.906 36.88C562.095 37.7333 561.071 38.3733 559.833 38.8C558.596 39.184 557.316 39.376 555.994 39.376C554.628 39.376 553.284 39.12 551.962 38.608C550.682 38.0533 549.615 37.2213 548.762 36.112C547.951 34.96 547.546 33.4667 547.546 31.632C547.546 29.8827 547.951 28.3893 548.762 27.152C549.572 25.872 550.767 24.7627 552.346 23.824C553.967 22.8853 555.908 22.1173 558.17 21.52C559.322 21.136 560.687 20.7307 562.266 20.304C563.887 19.8773 565.53 19.4293 567.194 18.96C568.858 18.448 570.394 17.8933 571.802 17.296C574.234 16.3573 575.983 15.3973 577.05 14.416C578.116 13.4347 578.65 12.3253 578.65 11.088C578.65 9.85066 578.308 8.784 577.626 7.888C576.943 6.94933 576.026 6.20267 574.874 5.648C573.764 5.09333 572.57 4.816 571.29 4.816C570.82 4.816 570.415 4.85866 570.074 4.944C569.775 4.98667 569.562 5.11467 569.434 5.328C570.159 5.62666 570.714 6.096 571.098 6.736C571.482 7.376 571.674 7.99467 571.674 8.592C571.674 9.65866 571.268 10.512 570.458 11.152C569.647 11.7493 568.687 12.048 567.578 12.048C566.554 12.048 565.636 11.7493 564.826 11.152C564.015 10.5547 563.61 9.68 563.61 8.528C563.61 7.41867 563.972 6.52266 564.698 5.84C565.423 5.11466 566.34 4.60266 567.45 4.304C568.602 3.96266 569.775 3.792 570.97 3.792ZM60.1123 81.688V82.968C59.2589 83.1813 58.3416 83.7573 57.3603 84.696C56.3789 85.592 55.5469 87.1067 54.8643 89.24L43.0883 127.256C42.9176 127.256 42.7256 127.256 42.5123 127.256C42.3416 127.256 42.1709 127.256 42.0003 127.256C41.7869 127.256 41.5949 127.256 41.4243 127.256C41.2536 127.256 41.0829 127.256 40.9123 127.256L27.3443 86.872C26.8323 85.2933 26.2349 84.2693 25.5523 83.8C24.9123 83.288 24.2936 83.0107 23.6963 82.968V81.688C24.5923 81.7307 25.7016 81.7733 27.0243 81.816C28.3469 81.8587 29.6269 81.88 30.8643 81.88C32.6136 81.88 34.2349 81.8587 35.7283 81.816C37.2643 81.7733 38.4803 81.7307 39.3763 81.688V82.968C38.0963 83.0107 37.0723 83.16 36.3043 83.416C35.5789 83.6293 35.1523 84.0987 35.0243 84.824C34.9389 85.5493 35.1523 86.7227 35.6643 88.344L45.0723 117.272L43.9843 118.68L52.0483 93.272C52.9016 90.6267 53.2856 88.5787 53.2003 87.128C53.1576 85.6347 52.6669 84.5893 51.7283 83.992C50.8323 83.352 49.5096 83.0107 47.7603 82.968V81.688C49.0403 81.7307 50.3203 81.7733 51.6003 81.816C52.8803 81.8587 54.1176 81.88 55.3123 81.88C56.3789 81.88 57.2749 81.8587 58.0003 81.816C58.7683 81.7733 59.4723 81.7307 60.1123 81.688ZM15.0563 81.688V82.968C14.0323 83.0533 13.3069 83.3093 12.8803 83.736C12.4536 84.12 12.2403 84.696 12.2403 85.464C12.2829 86.1893 12.4963 87.1493 12.8803 88.344L22.8003 117.976L21.1363 119.832L29.8403 92.76L30.8003 94.36L20.3683 127.256C20.1976 127.256 20.0269 127.256 19.8563 127.256C19.6856 127.256 19.4936 127.256 19.2803 127.256C19.1096 127.256 18.9176 127.256 18.7043 127.256C18.5336 127.256 18.3629 127.256 18.1923 127.256L4.36825 87.064C3.81358 85.4427 3.13092 84.376 2.32025 83.864C1.50958 83.3093 0.762917 83.0107 0.08025 82.968V81.688C1.10425 81.7307 2.32025 81.7733 3.72825 81.816C5.13625 81.8587 6.50158 81.88 7.82425 81.88C9.36025 81.88 10.7469 81.8587 11.9843 81.816C13.2643 81.7733 14.2883 81.7307 15.0563 81.688ZM64.4123 119.128C65.6923 119.128 66.7589 119.555 67.6123 120.408C68.5083 121.219 68.9563 122.264 68.9563 123.544C68.9563 124.781 68.5083 125.827 67.6123 126.68C66.7589 127.491 65.6923 127.896 64.4123 127.896C63.1323 127.896 62.0443 127.491 61.1483 126.68C60.2949 125.827 59.8683 124.781 59.8683 123.544C59.8683 122.264 60.2949 121.219 61.1483 120.408C62.0443 119.555 63.1323 119.128 64.4123 119.128ZM127.12 81.688V82.968C125.67 83.0107 124.582 83.1813 123.856 83.48C123.131 83.736 122.64 84.248 122.384 85.016C122.171 85.7413 122.064 86.8933 122.064 88.472V120.216C122.064 121.752 122.171 122.904 122.384 123.672C122.64 124.44 123.131 124.952 123.856 125.208C124.582 125.464 125.67 125.635 127.12 125.72V127C126.054 126.915 124.731 126.872 123.152 126.872C121.574 126.829 119.974 126.808 118.352 126.808C116.56 126.808 114.875 126.829 113.296 126.872C111.718 126.872 110.459 126.915 109.52 127V125.72C110.971 125.635 112.059 125.464 112.784 125.208C113.552 124.952 114.064 124.44 114.32 123.672C114.576 122.904 114.704 121.752 114.704 120.216V85.208L115.024 85.336L99.2803 127.256H98.2563L81.7443 85.784V118.552C81.7443 120.344 81.8723 121.752 82.1283 122.776C82.3843 123.757 82.9389 124.461 83.7923 124.888C84.6456 125.315 85.9469 125.592 87.6963 125.72V127C86.8856 126.915 85.8403 126.872 84.5603 126.872C83.3229 126.829 82.1496 126.808 81.0403 126.808C79.9736 126.808 78.9069 126.829 77.8403 126.872C76.7736 126.872 75.8989 126.915 75.2163 127V125.72C76.6243 125.592 77.6909 125.336 78.4163 124.952C79.1416 124.525 79.6323 123.821 79.8883 122.84C80.1443 121.859 80.2723 120.515 80.2723 118.808V88.472C80.2723 86.8933 80.1443 85.7413 79.8883 85.016C79.6323 84.248 79.1416 83.736 78.4163 83.48C77.6909 83.1813 76.6243 83.0107 75.2163 82.968V81.688C75.8989 81.7307 76.7736 81.7733 77.8403 81.816C78.9069 81.8587 79.9736 81.88 81.0403 81.88C82.2776 81.88 83.5149 81.8587 84.7523 81.816C86.0323 81.7733 87.1203 81.7307 88.0163 81.688L102.16 118.04L100.944 118.872L114.832 81.88C115.387 81.88 115.963 81.88 116.56 81.88C117.158 81.88 117.755 81.88 118.352 81.88C119.974 81.88 121.574 81.8587 123.152 81.816C124.731 81.7733 126.054 81.7307 127.12 81.688ZM147.715 81.688C148.696 81.7307 149.955 81.7733 151.491 81.816C153.069 81.8587 154.627 81.88 156.163 81.88C158.211 81.88 160.152 81.8587 161.987 81.816C163.864 81.7733 165.187 81.752 165.955 81.752C171.373 81.752 175.427 82.9253 178.115 85.272C180.803 87.6187 182.147 90.648 182.147 94.36C182.147 95.896 181.869 97.5173 181.315 99.224C180.803 100.888 179.885 102.445 178.563 103.896C177.24 105.304 175.448 106.456 173.187 107.352C170.925 108.248 168.045 108.696 164.547 108.696H158.275V107.416H163.907C166.765 107.416 168.941 106.84 170.435 105.688C171.971 104.536 172.995 103.021 173.507 101.144C174.061 99.2667 174.339 97.24 174.339 95.064C174.339 91.0107 173.613 87.9813 172.163 85.976C170.712 83.9707 168.195 82.968 164.611 82.968C162.776 82.968 161.56 83.3307 160.963 84.056C160.408 84.7813 160.131 86.2533 160.131 88.472V120.088C160.131 121.667 160.301 122.861 160.643 123.672C160.984 124.44 161.624 124.952 162.563 125.208C163.501 125.464 164.888 125.613 166.723 125.656V127C165.571 126.915 164.077 126.872 162.243 126.872C160.408 126.829 158.509 126.808 156.547 126.808C154.84 126.808 153.197 126.829 151.619 126.872C150.083 126.872 148.781 126.915 147.715 127V125.72C149.165 125.635 150.253 125.464 150.979 125.208C151.704 124.952 152.173 124.44 152.387 123.672C152.643 122.904 152.771 121.752 152.771 120.216V88.472C152.771 86.8933 152.643 85.7413 152.387 85.016C152.173 84.248 151.683 83.736 150.915 83.48C150.189 83.1813 149.123 83.0107 147.715 82.968V81.688ZM193.252 77.848C194.574 77.848 195.684 78.2747 196.58 79.128C197.476 79.9387 197.924 80.9627 197.924 82.2C197.924 83.4373 197.476 84.4827 196.58 85.336C195.684 86.1467 194.574 86.552 193.252 86.552C191.929 86.552 190.82 86.1467 189.924 85.336C189.028 84.4827 188.58 83.4373 188.58 82.2C188.58 80.9627 189.028 79.9387 189.924 79.128C190.82 78.2747 191.929 77.848 193.252 77.848ZM197.092 93.272V121.048C197.092 122.84 197.433 124.056 198.116 124.696C198.841 125.336 200.036 125.656 201.7 125.656V127C200.974 126.957 199.844 126.915 198.308 126.872C196.814 126.787 195.278 126.744 193.7 126.744C192.206 126.744 190.67 126.787 189.092 126.872C187.513 126.915 186.34 126.957 185.572 127V125.656C187.236 125.656 188.409 125.336 189.092 124.696C189.817 124.056 190.18 122.84 190.18 121.048V100.952C190.18 99.032 189.86 97.624 189.22 96.728C188.58 95.7893 187.364 95.32 185.572 95.32V93.976C186.937 94.104 188.26 94.168 189.54 94.168C190.99 94.168 192.334 94.104 193.572 93.976C194.852 93.8053 196.025 93.5707 197.092 93.272ZM227.031 93.08C228.738 93.08 230.125 93.3147 231.191 93.784C232.301 94.2107 233.218 94.808 233.943 95.576C234.711 96.3867 235.245 97.432 235.543 98.712C235.885 99.992 236.055 101.72 236.055 103.896V121.048C236.055 122.84 236.397 124.056 237.079 124.696C237.805 125.336 238.999 125.656 240.663 125.656V127C239.938 126.957 238.807 126.915 237.271 126.872C235.735 126.787 234.221 126.744 232.727 126.744C231.277 126.744 229.826 126.787 228.375 126.872C226.967 126.915 225.901 126.957 225.175 127V125.656C226.626 125.656 227.65 125.336 228.247 124.696C228.845 124.056 229.143 122.84 229.143 121.048V102.104C229.143 100.867 229.037 99.7573 228.823 98.776C228.61 97.752 228.162 96.9413 227.479 96.344C226.797 95.704 225.773 95.384 224.407 95.384C222.829 95.384 221.421 95.832 220.183 96.728C218.989 97.624 218.029 98.8613 217.303 100.44C216.621 101.976 216.279 103.704 216.279 105.624V121.048C216.279 122.84 216.578 124.056 217.175 124.696C217.815 125.336 218.839 125.656 220.247 125.656V127C219.565 126.957 218.519 126.915 217.111 126.872C215.746 126.787 214.317 126.744 212.823 126.744C211.373 126.744 209.858 126.787 208.279 126.872C206.701 126.915 205.527 126.957 204.759 127V125.656C206.423 125.656 207.597 125.336 208.279 124.696C209.005 124.056 209.367 122.84 209.367 121.048V100.952C209.367 99.032 209.047 97.624 208.407 96.728C207.767 95.7893 206.551 95.32 204.759 95.32V93.976C206.125 94.104 207.447 94.168 208.727 94.168C210.178 94.168 211.522 94.104 212.759 93.976C214.039 93.8053 215.213 93.5707 216.279 93.272V100.248C217.389 97.6027 218.903 95.7467 220.823 94.68C222.786 93.6133 224.855 93.08 227.031 93.08ZM254.791 139.032C252.402 139.032 250.183 138.797 248.135 138.328C246.13 137.859 244.509 137.133 243.271 136.152C242.077 135.213 241.479 133.997 241.479 132.504C241.479 131.096 242.077 129.859 243.271 128.792C244.466 127.725 246.151 126.915 248.327 126.36L248.775 127.384C247.879 127.768 247.175 128.387 246.663 129.24C246.194 130.093 245.959 131.032 245.959 132.056C245.959 133.933 246.834 135.384 248.583 136.408C250.333 137.432 252.637 137.944 255.495 137.944C257.415 137.944 259.229 137.688 260.935 137.176C262.685 136.707 264.093 135.917 265.159 134.808C266.269 133.699 266.823 132.269 266.823 130.52C266.823 129.155 266.333 128.003 265.351 127.064C264.37 126.168 262.429 125.72 259.527 125.72H255.047C253.554 125.72 252.167 125.592 250.887 125.336C249.607 125.08 248.562 124.589 247.751 123.864C246.983 123.096 246.599 122.029 246.599 120.664C246.599 119.128 247.239 117.677 248.519 116.312C249.799 114.947 251.954 113.603 254.983 112.28L255.751 112.856C254.514 113.539 253.405 114.243 252.423 114.968C251.485 115.651 251.015 116.504 251.015 117.528C251.015 118.893 251.997 119.576 253.959 119.576H261.575C263.581 119.576 265.394 119.853 267.015 120.408C268.637 120.92 269.938 121.752 270.919 122.904C271.901 124.056 272.391 125.571 272.391 127.448C272.391 129.453 271.73 131.331 270.407 133.08C269.127 134.872 267.186 136.301 264.583 137.368C261.981 138.477 258.717 139.032 254.791 139.032ZM255.175 113.368C252.999 113.368 251.015 113.027 249.223 112.344C247.431 111.619 246.023 110.509 244.999 109.016C243.975 107.523 243.463 105.603 243.463 103.256C243.463 100.909 243.975 98.9893 244.999 97.496C246.023 95.96 247.431 94.8507 249.223 94.168C251.015 93.4427 252.999 93.08 255.175 93.08C257.437 93.08 259.442 93.4427 261.191 94.168C262.941 94.8507 264.327 95.96 265.351 97.496C266.375 98.9893 266.887 100.909 266.887 103.256C266.887 105.603 266.375 107.523 265.351 109.016C264.327 110.509 262.941 111.619 261.191 112.344C259.442 113.027 257.437 113.368 255.175 113.368ZM255.175 112.216C256.669 112.216 257.821 111.576 258.631 110.296C259.442 109.016 259.847 106.669 259.847 103.256C259.847 99.8427 259.442 97.496 258.631 96.216C257.821 94.8933 256.669 94.232 255.175 94.232C253.767 94.232 252.637 94.8933 251.783 96.216C250.93 97.496 250.503 99.8427 250.503 103.256C250.503 106.669 250.93 109.016 251.783 110.296C252.637 111.576 253.767 112.216 255.175 112.216ZM264.647 98.456L263.495 98.008C264.093 96.5147 265.117 95.2133 266.567 94.104C268.018 92.9947 269.533 92.44 271.111 92.44C272.306 92.44 273.245 92.7813 273.927 93.464C274.653 94.104 275.015 95.0213 275.015 96.216C275.015 97.5387 274.653 98.4773 273.927 99.032C273.245 99.5867 272.519 99.864 271.751 99.864C271.069 99.864 270.429 99.6293 269.831 99.16C269.277 98.6907 268.957 97.9653 268.871 96.984C268.786 95.96 269.106 94.6587 269.831 93.08L270.535 93.336C268.829 94.0187 267.57 94.744 266.759 95.512C265.991 96.2373 265.287 97.2187 264.647 98.456ZM289.104 139.032C286.714 139.032 284.496 138.797 282.448 138.328C280.442 137.859 278.821 137.133 277.584 136.152C276.389 135.213 275.792 133.997 275.792 132.504C275.792 131.096 276.389 129.859 277.584 128.792C278.778 127.725 280.464 126.915 282.64 126.36L283.088 127.384C282.192 127.768 281.488 128.387 280.976 129.24C280.506 130.093 280.272 131.032 280.272 132.056C280.272 133.933 281.146 135.384 282.896 136.408C284.645 137.432 286.949 137.944 289.808 137.944C291.728 137.944 293.541 137.688 295.248 137.176C296.997 136.707 298.405 135.917 299.472 134.808C300.581 133.699 301.136 132.269 301.136 130.52C301.136 129.155 300.645 128.003 299.664 127.064C298.682 126.168 296.741 125.72 293.84 125.72H289.36C287.866 125.72 286.48 125.592 285.2 125.336C283.92 125.08 282.874 124.589 282.064 123.864C281.296 123.096 280.912 122.029 280.912 120.664C280.912 119.128 281.552 117.677 282.832 116.312C284.112 114.947 286.266 113.603 289.296 112.28L290.064 112.856C288.826 113.539 287.717 114.243 286.736 114.968C285.797 115.651 285.328 116.504 285.328 117.528C285.328 118.893 286.309 119.576 288.272 119.576H295.888C297.893 119.576 299.706 119.853 301.328 120.408C302.949 120.92 304.25 121.752 305.232 122.904C306.213 124.056 306.704 125.571 306.704 127.448C306.704 129.453 306.042 131.331 304.72 133.08C303.44 134.872 301.498 136.301 298.896 137.368C296.293 138.477 293.029 139.032 289.104 139.032ZM289.488 113.368C287.312 113.368 285.328 113.027 283.536 112.344C281.744 111.619 280.336 110.509 279.312 109.016C278.288 107.523 277.776 105.603 277.776 103.256C277.776 100.909 278.288 98.9893 279.312 97.496C280.336 95.96 281.744 94.8507 283.536 94.168C285.328 93.4427 287.312 93.08 289.488 93.08C291.749 93.08 293.754 93.4427 295.504 94.168C297.253 94.8507 298.64 95.96 299.664 97.496C300.688 98.9893 301.2 100.909 301.2 103.256C301.2 105.603 300.688 107.523 299.664 109.016C298.64 110.509 297.253 111.619 295.504 112.344C293.754 113.027 291.749 113.368 289.488 113.368ZM289.488 112.216C290.981 112.216 292.133 111.576 292.944 110.296C293.754 109.016 294.16 106.669 294.16 103.256C294.16 99.8427 293.754 97.496 292.944 96.216C292.133 94.8933 290.981 94.232 289.488 94.232C288.08 94.232 286.949 94.8933 286.096 96.216C285.242 97.496 284.816 99.8427 284.816 103.256C284.816 106.669 285.242 109.016 286.096 110.296C286.949 111.576 288.08 112.216 289.488 112.216ZM298.96 98.456L297.808 98.008C298.405 96.5147 299.429 95.2133 300.88 94.104C302.33 92.9947 303.845 92.44 305.424 92.44C306.618 92.44 307.557 92.7813 308.24 93.464C308.965 94.104 309.328 95.0213 309.328 96.216C309.328 97.5387 308.965 98.4773 308.24 99.032C307.557 99.5867 306.832 99.864 306.064 99.864C305.381 99.864 304.741 99.6293 304.144 99.16C303.589 98.6907 303.269 97.9653 303.184 96.984C303.098 95.96 303.418 94.6587 304.144 93.08L304.848 93.336C303.141 94.0187 301.882 94.744 301.072 95.512C300.304 96.2373 299.6 97.2187 298.96 98.456ZM319.064 77.848C320.387 77.848 321.496 78.2747 322.392 79.128C323.288 79.9387 323.736 80.9627 323.736 82.2C323.736 83.4373 323.288 84.4827 322.392 85.336C321.496 86.1467 320.387 86.552 319.064 86.552C317.742 86.552 316.632 86.1467 315.736 85.336C314.84 84.4827 314.392 83.4373 314.392 82.2C314.392 80.9627 314.84 79.9387 315.736 79.128C316.632 78.2747 317.742 77.848 319.064 77.848ZM322.904 93.272V121.048C322.904 122.84 323.246 124.056 323.928 124.696C324.654 125.336 325.848 125.656 327.512 125.656V127C326.787 126.957 325.656 126.915 324.12 126.872C322.627 126.787 321.091 126.744 319.512 126.744C318.019 126.744 316.483 126.787 314.904 126.872C313.326 126.915 312.152 126.957 311.384 127V125.656C313.048 125.656 314.222 125.336 314.904 124.696C315.63 124.056 315.992 122.84 315.992 121.048V100.952C315.992 99.032 315.672 97.624 315.032 96.728C314.392 95.7893 313.176 95.32 311.384 95.32V93.976C312.75 94.104 314.072 94.168 315.352 94.168C316.803 94.168 318.147 94.104 319.384 93.976C320.664 93.8053 321.838 93.5707 322.904 93.272ZM351.18 93.08C352.417 93.08 353.462 93.336 354.316 93.848C355.212 94.36 355.873 95.0213 356.3 95.832C356.769 96.6 357.004 97.4747 357.004 98.456C357.004 99.6933 356.62 100.76 355.852 101.656C355.126 102.509 354.145 102.936 352.908 102.936C351.841 102.936 350.924 102.616 350.156 101.976C349.43 101.336 349.068 100.461 349.068 99.352C349.068 98.4133 349.302 97.624 349.772 96.984C350.284 96.3013 350.86 95.768 351.5 95.384C351.073 95.0427 350.561 94.8933 349.964 94.936C348.812 94.9787 347.745 95.3627 346.764 96.088C345.782 96.7707 344.95 97.6667 344.268 98.776C343.585 99.8427 343.052 100.995 342.668 102.232C342.284 103.469 342.092 104.621 342.092 105.688V120.408C342.092 122.499 342.668 123.907 343.82 124.632C344.972 125.315 346.572 125.656 348.62 125.656V127C347.638 126.957 346.23 126.915 344.396 126.872C342.604 126.787 340.705 126.744 338.7 126.744C337.164 126.744 335.628 126.787 334.092 126.872C332.556 126.915 331.382 126.957 330.572 127V125.656C332.236 125.656 333.409 125.336 334.092 124.696C334.817 124.056 335.18 122.84 335.18 121.048V100.952C335.18 99.032 334.86 97.624 334.22 96.728C333.58 95.7893 332.364 95.32 330.572 95.32V93.976C331.937 94.104 333.26 94.168 334.54 94.168C335.99 94.168 337.334 94.104 338.572 93.976C339.852 93.8053 341.025 93.5707 342.092 93.272V100.632C342.604 99.3947 343.286 98.2 344.14 97.048C344.993 95.896 346.017 94.9573 347.212 94.232C348.406 93.464 349.729 93.08 351.18 93.08ZM388.991 80.92C391.253 80.92 392.981 81.176 394.175 81.688C395.37 82.2 396.415 82.7547 397.311 83.352C397.823 83.6507 398.229 83.8853 398.527 84.056C398.869 84.184 399.189 84.248 399.487 84.248C399.914 84.248 400.213 84.0133 400.383 83.544C400.597 83.0747 400.767 82.3707 400.895 81.432H402.367C402.325 82.2 402.261 83.1173 402.175 84.184C402.133 85.208 402.09 86.5733 402.047 88.28C402.047 89.9867 402.047 92.2267 402.047 95H400.575C400.447 92.9093 399.978 90.8827 399.167 88.92C398.399 86.9573 397.247 85.3573 395.711 84.12C394.218 82.8827 392.298 82.264 389.951 82.264C387.775 82.264 385.962 82.9253 384.511 84.248C383.103 85.528 382.399 87.2347 382.399 89.368C382.399 91.2453 382.869 92.824 383.807 94.104C384.746 95.3413 386.026 96.5147 387.647 97.624C389.311 98.6907 391.189 99.8853 393.279 101.208C395.413 102.573 397.333 103.939 399.039 105.304C400.746 106.627 402.09 108.099 403.071 109.72C404.053 111.341 404.543 113.304 404.543 115.608C404.543 118.381 403.882 120.685 402.559 122.52C401.279 124.312 399.551 125.656 397.375 126.552C395.199 127.448 392.81 127.896 390.207 127.896C387.818 127.896 385.919 127.64 384.511 127.128C383.103 126.616 381.909 126.083 380.927 125.528C379.989 124.931 379.263 124.632 378.751 124.632C378.325 124.632 378.005 124.867 377.791 125.336C377.621 125.805 377.471 126.509 377.343 127.448H375.871C375.957 126.509 375.999 125.421 375.999 124.184C376.042 122.904 376.063 121.24 376.063 119.192C376.106 117.144 376.127 114.563 376.127 111.448H377.599C377.77 114.093 378.239 116.568 379.007 118.872C379.818 121.176 381.034 123.032 382.655 124.44C384.319 125.805 386.517 126.488 389.247 126.488C390.698 126.488 392.042 126.211 393.279 125.656C394.517 125.101 395.519 124.227 396.287 123.032C397.055 121.837 397.439 120.301 397.439 118.424C397.439 116.675 397.013 115.139 396.159 113.816C395.349 112.493 394.197 111.277 392.703 110.168C391.253 109.016 389.546 107.843 387.583 106.648C385.578 105.368 383.701 104.088 381.951 102.808C380.202 101.528 378.794 100.035 377.727 98.328C376.703 96.6213 376.191 94.5947 376.191 92.248C376.191 89.6453 376.789 87.512 377.983 85.848C379.221 84.184 380.799 82.9467 382.719 82.136C384.682 81.3253 386.773 80.92 388.991 80.92ZM418.283 127.448C416.491 127.448 414.955 127.107 413.675 126.424C412.395 125.741 411.435 124.803 410.795 123.608C410.155 122.413 409.835 121.048 409.835 119.512C409.835 117.635 410.262 116.12 411.115 114.968C411.969 113.773 413.057 112.813 414.379 112.088C415.745 111.363 417.174 110.765 418.667 110.296C420.203 109.784 421.633 109.315 422.955 108.888C424.321 108.419 425.43 107.885 426.283 107.288C427.179 106.691 427.627 105.901 427.627 104.92V100.568C427.627 99.032 427.371 97.816 426.859 96.92C426.39 95.9813 425.729 95.32 424.875 94.936C424.065 94.552 423.083 94.36 421.931 94.36C420.95 94.36 419.905 94.5093 418.795 94.808C417.686 95.064 416.811 95.5973 416.171 96.408C417.11 96.664 417.878 97.176 418.475 97.944C419.115 98.6693 419.435 99.5867 419.435 100.696C419.435 101.891 419.03 102.829 418.219 103.512C417.451 104.195 416.47 104.536 415.275 104.536C413.953 104.536 412.971 104.131 412.331 103.32C411.691 102.467 411.371 101.485 411.371 100.376C411.371 99.224 411.649 98.2853 412.203 97.56C412.801 96.8347 413.569 96.152 414.507 95.512C415.531 94.8293 416.833 94.2533 418.411 93.784C420.033 93.3147 421.825 93.08 423.787 93.08C425.622 93.08 427.201 93.2933 428.523 93.72C429.889 94.104 431.019 94.744 431.915 95.64C432.982 96.6213 433.686 97.8587 434.027 99.352C434.369 100.803 434.539 102.573 434.539 104.664V122.328C434.539 123.395 434.667 124.163 434.923 124.632C435.222 125.059 435.691 125.272 436.331 125.272C436.758 125.272 437.163 125.165 437.547 124.952C437.974 124.739 438.465 124.419 439.019 123.992L439.659 125.08C438.763 125.805 437.846 126.381 436.907 126.808C436.011 127.235 434.859 127.448 433.451 127.448C432.086 127.448 430.977 127.235 430.123 126.808C429.27 126.381 428.63 125.763 428.203 124.952C427.819 124.141 427.627 123.139 427.627 121.944C426.518 123.736 425.195 125.101 423.659 126.04C422.123 126.979 420.331 127.448 418.283 127.448ZM421.355 124.376C422.55 124.376 423.659 124.035 424.683 123.352C425.75 122.669 426.731 121.645 427.627 120.28V107.544C427.158 108.227 426.475 108.824 425.579 109.336C424.683 109.805 423.723 110.296 422.699 110.808C421.675 111.32 420.694 111.917 419.755 112.6C418.859 113.24 418.113 114.072 417.515 115.096C416.918 116.12 416.619 117.421 416.619 119C416.619 120.664 417.046 121.987 417.899 122.968C418.753 123.907 419.905 124.376 421.355 124.376ZM454.382 93.976V95.32C453.358 95.32 452.441 95.4053 451.63 95.576C450.862 95.704 450.35 96.088 450.094 96.728C449.881 97.368 450.052 98.4987 450.606 100.12L457.07 119.192L456.494 119.448L465.262 93.784L466.542 94.36L455.47 127.256C455.129 127.256 454.788 127.256 454.446 127.256C454.105 127.256 453.742 127.256 453.358 127.256L442.99 98.904C442.308 97.1973 441.625 96.1733 440.942 95.832C440.302 95.4907 439.748 95.32 439.278 95.32V93.976C440.302 94.104 441.348 94.2107 442.414 94.296C443.524 94.3387 444.74 94.36 446.062 94.36C447.385 94.36 448.772 94.3173 450.222 94.232C451.716 94.1467 453.102 94.0613 454.382 93.976ZM488.942 93.976V95.256C488.132 95.384 487.364 95.7893 486.638 96.472C485.913 97.1547 485.273 98.3707 484.718 100.12L475.694 127.256C475.353 127.256 474.99 127.256 474.606 127.256C474.265 127.256 473.924 127.256 473.582 127.256L463.662 101.592L465.262 93.784C465.689 93.8267 466.094 93.848 466.478 93.848C466.905 93.8053 467.332 93.784 467.758 93.784L477.358 120.024L476.782 120.088L482.414 102.68C482.969 100.931 483.182 99.544 483.054 98.52C482.926 97.496 482.478 96.728 481.71 96.216C480.942 95.704 479.79 95.384 478.254 95.256V93.976C479.022 94.0187 479.705 94.0613 480.302 94.104C480.942 94.104 481.561 94.1253 482.158 94.168C482.798 94.168 483.438 94.168 484.078 94.168C485.017 94.168 485.892 94.1467 486.702 94.104C487.556 94.0613 488.302 94.0187 488.942 93.976ZM499.346 127.448C497.554 127.448 496.018 127.107 494.738 126.424C493.458 125.741 492.498 124.803 491.858 123.608C491.218 122.413 490.898 121.048 490.898 119.512C490.898 117.635 491.324 116.12 492.178 114.968C493.031 113.773 494.119 112.813 495.442 112.088C496.807 111.363 498.236 110.765 499.73 110.296C501.266 109.784 502.695 109.315 504.018 108.888C505.383 108.419 506.492 107.885 507.346 107.288C508.242 106.691 508.69 105.901 508.69 104.92V100.568C508.69 99.032 508.434 97.816 507.922 96.92C507.452 95.9813 506.791 95.32 505.938 94.936C505.127 94.552 504.146 94.36 502.994 94.36C502.012 94.36 500.967 94.5093 499.858 94.808C498.748 95.064 497.874 95.5973 497.234 96.408C498.172 96.664 498.94 97.176 499.538 97.944C500.178 98.6693 500.498 99.5867 500.498 100.696C500.498 101.891 500.092 102.829 499.282 103.512C498.514 104.195 497.532 104.536 496.338 104.536C495.015 104.536 494.034 104.131 493.394 103.32C492.754 102.467 492.434 101.485 492.434 100.376C492.434 99.224 492.711 98.2853 493.266 97.56C493.863 96.8347 494.631 96.152 495.57 95.512C496.594 94.8293 497.895 94.2533 499.474 93.784C501.095 93.3147 502.887 93.08 504.85 93.08C506.684 93.08 508.263 93.2933 509.586 93.72C510.951 94.104 512.082 94.744 512.978 95.64C514.044 96.6213 514.748 97.8587 515.09 99.352C515.431 100.803 515.602 102.573 515.602 104.664V122.328C515.602 123.395 515.73 124.163 515.986 124.632C516.284 125.059 516.754 125.272 517.394 125.272C517.82 125.272 518.226 125.165 518.61 124.952C519.036 124.739 519.527 124.419 520.082 123.992L520.722 125.08C519.826 125.805 518.908 126.381 517.97 126.808C517.074 127.235 515.922 127.448 514.514 127.448C513.148 127.448 512.039 127.235 511.186 126.808C510.332 126.381 509.692 125.763 509.266 124.952C508.882 124.141 508.69 123.139 508.69 121.944C507.58 123.736 506.258 125.101 504.722 126.04C503.186 126.979 501.394 127.448 499.346 127.448ZM502.418 124.376C503.612 124.376 504.722 124.035 505.746 123.352C506.812 122.669 507.794 121.645 508.69 120.28V107.544C508.22 108.227 507.538 108.824 506.642 109.336C505.746 109.805 504.786 110.296 503.762 110.808C502.738 111.32 501.756 111.917 500.818 112.6C499.922 113.24 499.175 114.072 498.578 115.096C497.98 116.12 497.682 117.421 497.682 119C497.682 120.664 498.108 121.987 498.962 122.968C499.815 123.907 500.967 124.376 502.418 124.376ZM533.706 76.888V100.184C534.773 97.5387 536.266 95.704 538.186 94.68C540.149 93.6133 542.218 93.08 544.394 93.08C546.101 93.08 547.488 93.3147 548.554 93.784C549.664 94.2107 550.581 94.808 551.306 95.576C552.074 96.3867 552.629 97.432 552.97 98.712C553.312 99.992 553.482 101.72 553.482 103.896V121.048C553.482 122.84 553.824 124.056 554.506 124.696C555.232 125.336 556.426 125.656 558.09 125.656V127C557.322 126.957 556.17 126.915 554.634 126.872C553.098 126.787 551.605 126.744 550.154 126.744C548.661 126.744 547.189 126.787 545.738 126.872C544.33 126.915 543.285 126.957 542.602 127V125.656C544.053 125.656 545.077 125.336 545.674 124.696C546.272 124.056 546.57 122.84 546.57 121.048V102.104C546.57 100.867 546.464 99.7573 546.25 98.776C546.037 97.752 545.568 96.9413 544.842 96.344C544.16 95.704 543.136 95.384 541.77 95.384C540.234 95.384 538.848 95.832 537.61 96.728C536.416 97.5813 535.456 98.776 534.73 100.312C534.048 101.848 533.706 103.597 533.706 105.56V121.048C533.706 122.84 534.005 124.056 534.602 124.696C535.2 125.336 536.224 125.656 537.674 125.656V127C536.949 126.957 535.882 126.915 534.474 126.872C533.109 126.787 531.701 126.744 530.25 126.744C528.757 126.744 527.221 126.787 525.642 126.872C524.106 126.915 522.954 126.957 522.186 127V125.656C523.85 125.656 525.024 125.336 525.706 124.696C526.432 124.056 526.794 122.84 526.794 121.048V84.568C526.794 82.648 526.453 81.24 525.77 80.344C525.13 79.4053 523.936 78.936 522.186 78.936V77.592C523.552 77.72 524.874 77.784 526.154 77.784C527.562 77.784 528.906 77.72 530.186 77.592C531.466 77.4213 532.64 77.1867 533.706 76.888ZM594.562 81.688V82.968C593.154 83.0107 592.087 83.1813 591.362 83.48C590.636 83.736 590.146 84.248 589.89 85.016C589.634 85.7413 589.506 86.8933 589.506 88.472V120.216C589.506 121.752 589.634 122.904 589.89 123.672C590.146 124.44 590.636 124.952 591.362 125.208C592.087 125.464 593.154 125.635 594.562 125.72V127C593.538 126.915 592.236 126.872 590.658 126.872C589.122 126.829 587.543 126.808 585.922 126.808C584.13 126.808 582.444 126.829 580.866 126.872C579.33 126.872 578.071 126.915 577.09 127V125.72C578.54 125.635 579.628 125.464 580.354 125.208C581.079 124.952 581.548 124.44 581.762 123.672C582.018 122.904 582.146 121.752 582.146 120.216V88.472C582.146 86.8933 582.018 85.7413 581.762 85.016C581.548 84.248 581.058 83.736 580.29 83.48C579.564 83.1813 578.498 83.0107 577.09 82.968V81.688C578.071 81.7307 579.33 81.7733 580.866 81.816C582.444 81.8587 584.13 81.88 585.922 81.88C587.543 81.88 589.122 81.8587 590.658 81.816C592.236 81.7733 593.538 81.7307 594.562 81.688ZM618.791 93.08C622.205 93.08 625.042 94.5093 627.303 97.368C629.607 100.184 630.759 104.472 630.759 110.232C630.759 114.285 630.098 117.613 628.775 120.216C627.453 122.819 625.682 124.76 623.463 126.04C621.287 127.277 618.919 127.896 616.359 127.896C614.354 127.896 612.434 127.405 610.599 126.424C608.765 125.4 607.357 123.864 606.375 121.816L607.527 122.136C608.466 123.587 609.639 124.675 611.047 125.4C612.455 126.125 613.885 126.488 615.335 126.488C618.023 126.488 620.029 125.187 621.351 122.584C622.717 119.981 623.399 115.971 623.399 110.552C623.399 107.011 623.122 104.109 622.567 101.848C622.055 99.5867 621.266 97.944 620.199 96.92C619.175 95.8533 617.874 95.32 616.295 95.32C614.461 95.32 612.775 96.1093 611.239 97.688C609.703 99.2667 608.786 101.549 608.487 104.536L607.847 103.192C608.445 99.992 609.725 97.5173 611.687 95.768C613.693 93.976 616.061 93.08 618.791 93.08ZM608.871 76.888V124.376C608.146 124.632 607.399 124.952 606.631 125.336C605.863 125.72 605.138 126.147 604.455 126.616C603.773 127.043 603.133 127.512 602.535 128.024L601.511 127.512C601.682 126.915 601.789 126.317 601.831 125.72C601.917 125.123 601.959 124.504 601.959 123.864V84.568C601.959 82.648 601.618 81.24 600.935 80.344C600.295 79.4053 599.101 78.936 597.351 78.936V77.592C598.717 77.72 600.039 77.784 601.319 77.784C602.727 77.784 604.071 77.72 605.351 77.592C606.631 77.4213 607.805 77.1867 608.871 76.888ZM651.322 93.08C654.18 93.08 656.719 93.6773 658.938 94.872C661.156 96.0667 662.927 97.944 664.25 100.504C665.572 103.064 666.234 106.413 666.234 110.552C666.234 114.691 665.572 118.04 664.25 120.6C662.927 123.117 661.156 124.973 658.938 126.168C656.719 127.32 654.18 127.896 651.322 127.896C648.506 127.896 645.967 127.32 643.706 126.168C641.444 124.973 639.652 123.117 638.33 120.6C637.05 118.04 636.41 114.691 636.41 110.552C636.41 106.413 637.05 103.064 638.33 100.504C639.652 97.944 641.444 96.0667 643.706 94.872C645.967 93.6773 648.506 93.08 651.322 93.08ZM651.322 94.36C649.103 94.36 647.29 95.64 645.882 98.2C644.474 100.717 643.77 104.835 643.77 110.552C643.77 116.269 644.474 120.387 645.882 122.904C647.29 125.379 649.103 126.616 651.322 126.616C653.498 126.616 655.29 125.379 656.698 122.904C658.148 120.387 658.874 116.269 658.874 110.552C658.874 104.835 658.148 100.717 656.698 98.2C655.29 95.64 653.498 94.36 651.322 94.36ZM686.631 93.08C690.386 93.08 693.33 94.2107 695.463 96.472C697.597 98.7333 698.663 102.317 698.663 107.224H676.583L676.455 106.008H691.879C691.922 103.917 691.751 101.997 691.367 100.248C690.983 98.456 690.386 97.0267 689.575 95.96C688.765 94.8933 687.698 94.36 686.375 94.36C684.541 94.36 682.941 95.3413 681.575 97.304C680.253 99.224 679.442 102.317 679.143 106.584L679.335 106.904C679.293 107.501 679.25 108.163 679.207 108.888C679.165 109.571 679.143 110.253 679.143 110.936C679.143 113.88 679.591 116.355 680.487 118.36C681.383 120.365 682.557 121.88 684.007 122.904C685.458 123.885 686.93 124.376 688.423 124.376C689.575 124.376 690.685 124.205 691.751 123.864C692.861 123.48 693.906 122.861 694.887 122.008C695.869 121.112 696.743 119.896 697.511 118.36L698.791 118.872C698.279 120.323 697.49 121.752 696.423 123.16C695.357 124.568 693.991 125.72 692.327 126.616C690.663 127.469 688.722 127.896 686.503 127.896C683.517 127.896 680.914 127.235 678.695 125.912C676.477 124.547 674.77 122.605 673.575 120.088C672.381 117.571 671.783 114.584 671.783 111.128C671.783 107.331 672.402 104.088 673.639 101.4C674.877 98.712 676.605 96.664 678.823 95.256C681.085 93.8053 683.687 93.08 686.631 93.08Z" fill="#282A3A"/>
</svg>
